<svg width="447" height="245" viewBox="0 0 447 245" fill="none" xmlns="http://www.w3.org/2000/svg">
<g clip-path="url(#clip0_0_269)">
<rect width="447" height="245" rx="10" fill="url(#paint0_linear_0_269)"/>
<mask id="mask0_0_269" style="mask-type:luminance" maskUnits="userSpaceOnUse" x="0" y="0" width="447" height="245">
<rect width="447" height="245" rx="10" fill="white"/>
</mask>
<g mask="url(#mask0_0_269)">
<g opacity="0.847405" filter="url(#filter0_f_0_269)">
<ellipse cx="272.655" cy="61.6554" rx="65.5" ry="181.5" transform="rotate(45 272.655 61.6554)" fill="#D53AFF"/>
</g>
<g opacity="0.847405" filter="url(#filter1_f_0_269)">
<ellipse cx="371.655" cy="56.6554" rx="65.5" ry="181.5" transform="rotate(45 371.655 56.6554)" fill="#FF834A"/>
</g>
<g opacity="0.847405" filter="url(#filter2_f_0_269)">
<ellipse cx="240.655" cy="213.655" rx="65.5" ry="181.5" transform="rotate(45 240.655 213.655)" fill="#47A2FF"/>
</g>
</g>
<path d="M41.016 167.392C38.7387 167.392 36.9187 166.748 35.556 165.46C34.212 164.153 33.54 162.193 33.54 159.58V154.82C33.54 152.263 34.212 150.321 35.556 148.996C36.9187 147.671 38.7387 147.008 41.016 147.008C43.312 147.008 45.132 147.671 46.476 148.996C47.8387 150.321 48.52 152.263 48.52 154.82V159.58C48.52 162.193 47.8387 164.153 46.476 165.46C45.132 166.748 43.312 167.392 41.016 167.392ZM41.016 164.76C42.5653 164.76 43.7133 164.321 44.46 163.444C45.2067 162.548 45.58 161.297 45.58 159.692V154.652C45.58 153.047 45.1787 151.815 44.376 150.956C43.5733 150.079 42.4533 149.64 41.016 149.64C39.56 149.64 38.44 150.088 37.656 150.984C36.872 151.861 36.48 153.084 36.48 154.652V159.692C36.48 161.335 36.8533 162.595 37.6 163.472C38.3653 164.331 39.504 164.76 41.016 164.76ZM62.4851 167.392C60.2078 167.392 58.3878 166.748 57.0251 165.46C55.6811 164.153 55.0091 162.193 55.0091 159.58V154.82C55.0091 152.263 55.6811 150.321 57.0251 148.996C58.3878 147.671 60.2078 147.008 62.4851 147.008C64.7811 147.008 66.6011 147.671 67.9451 148.996C69.3078 150.321 69.9891 152.263 69.9891 154.82V159.58C69.9891 162.193 69.3078 164.153 67.9451 165.46C66.6011 166.748 64.7811 167.392 62.4851 167.392ZM62.4851 164.76C64.0344 164.76 65.1824 164.321 65.9291 163.444C66.6758 162.548 67.0491 161.297 67.0491 159.692V154.652C67.0491 153.047 66.6478 151.815 65.8451 150.956C65.0424 150.079 63.9224 149.64 62.4851 149.64C61.0291 149.64 59.9091 150.088 59.1251 150.984C58.3411 151.861 57.9491 153.084 57.9491 154.652V159.692C57.9491 161.335 58.3224 162.595 59.0691 163.472C59.8344 164.331 60.9731 164.76 62.4851 164.76ZM83.9542 167.392C81.6769 167.392 79.8569 166.748 78.4942 165.46C77.1502 164.153 76.4782 162.193 76.4782 159.58V154.82C76.4782 152.263 77.1502 150.321 78.4942 148.996C79.8569 147.671 81.6769 147.008 83.9542 147.008C86.2502 147.008 88.0702 147.671 89.4142 148.996C90.7769 150.321 91.4582 152.263 91.4582 154.82V159.58C91.4582 162.193 90.7769 164.153 89.4142 165.46C88.0702 166.748 86.2502 167.392 83.9542 167.392ZM83.9542 164.76C85.5035 164.76 86.6515 164.321 87.3982 163.444C88.1449 162.548 88.5182 161.297 88.5182 159.692V154.652C88.5182 153.047 88.1169 151.815 87.3142 150.956C86.5115 150.079 85.3915 149.64 83.9542 149.64C82.4982 149.64 81.3782 150.088 80.5942 150.984C79.8102 151.861 79.4182 153.084 79.4182 154.652V159.692C79.4182 161.335 79.7915 162.595 80.5382 163.472C81.3035 164.331 82.4422 164.76 83.9542 164.76ZM105.423 167.392C103.146 167.392 101.326 166.748 99.9633 165.46C98.6193 164.153 97.9473 162.193 97.9473 159.58V154.82C97.9473 152.263 98.6193 150.321 99.9633 148.996C101.326 147.671 103.146 147.008 105.423 147.008C107.719 147.008 109.539 147.671 110.883 148.996C112.246 150.321 112.927 152.263 112.927 154.82V159.58C112.927 162.193 112.246 164.153 110.883 165.46C109.539 166.748 107.719 167.392 105.423 167.392ZM105.423 164.76C106.973 164.76 108.121 164.321 108.867 163.444C109.614 162.548 109.987 161.297 109.987 159.692V154.652C109.987 153.047 109.586 151.815 108.783 150.956C107.981 150.079 106.861 149.64 105.423 149.64C103.967 149.64 102.847 150.088 102.063 150.984C101.279 151.861 100.887 153.084 100.887 154.652V159.692C100.887 161.335 101.261 162.595 102.007 163.472C102.773 164.331 103.911 164.76 105.423 164.76ZM137.451 167.392C135.174 167.392 133.354 166.748 131.991 165.46C130.647 164.153 129.975 162.193 129.975 159.58V154.82C129.975 152.263 130.647 150.321 131.991 148.996C133.354 147.671 135.174 147.008 137.451 147.008C139.747 147.008 141.567 147.671 142.911 148.996C144.274 150.321 144.955 152.263 144.955 154.82V159.58C144.955 162.193 144.274 164.153 142.911 165.46C141.567 166.748 139.747 167.392 137.451 167.392ZM137.451 164.76C139.001 164.76 140.149 164.321 140.895 163.444C141.642 162.548 142.015 161.297 142.015 159.692V154.652C142.015 153.047 141.614 151.815 140.811 150.956C140.009 150.079 138.889 149.64 137.451 149.64C135.995 149.64 134.875 150.088 134.091 150.984C133.307 151.861 132.915 153.084 132.915 154.652V159.692C132.915 161.335 133.289 162.595 134.035 163.472C134.801 164.331 135.939 164.76 137.451 164.76ZM158.92 167.392C156.643 167.392 154.823 166.748 153.46 165.46C152.116 164.153 151.444 162.193 151.444 159.58V154.82C151.444 152.263 152.116 150.321 153.46 148.996C154.823 147.671 156.643 147.008 158.92 147.008C161.216 147.008 163.036 147.671 164.38 148.996C165.743 150.321 166.424 152.263 166.424 154.82V159.58C166.424 162.193 165.743 164.153 164.38 165.46C163.036 166.748 161.216 167.392 158.92 167.392ZM158.92 164.76C160.47 164.76 161.618 164.321 162.364 163.444C163.111 162.548 163.484 161.297 163.484 159.692V154.652C163.484 153.047 163.083 151.815 162.28 150.956C161.478 150.079 160.358 149.64 158.92 149.64C157.464 149.64 156.344 150.088 155.56 150.984C154.776 151.861 154.384 153.084 154.384 154.652V159.692C154.384 161.335 154.758 162.595 155.504 163.472C156.27 164.331 157.408 164.76 158.92 164.76ZM180.39 167.392C178.112 167.392 176.292 166.748 174.93 165.46C173.586 164.153 172.914 162.193 172.914 159.58V154.82C172.914 152.263 173.586 150.321 174.93 148.996C176.292 147.671 178.112 147.008 180.39 147.008C182.686 147.008 184.506 147.671 185.85 148.996C187.212 150.321 187.894 152.263 187.894 154.82V159.58C187.894 162.193 187.212 164.153 185.85 165.46C184.506 166.748 182.686 167.392 180.39 167.392ZM180.39 164.76C181.939 164.76 183.087 164.321 183.834 163.444C184.58 162.548 184.954 161.297 184.954 159.692V154.652C184.954 153.047 184.552 151.815 183.75 150.956C182.947 150.079 181.827 149.64 180.39 149.64C178.934 149.64 177.814 150.088 177.03 150.984C176.246 151.861 175.854 153.084 175.854 154.652V159.692C175.854 161.335 176.227 162.595 176.974 163.472C177.739 164.331 178.878 164.76 180.39 164.76ZM201.859 167.392C199.581 167.392 197.761 166.748 196.399 165.46C195.055 164.153 194.383 162.193 194.383 159.58V154.82C194.383 152.263 195.055 150.321 196.399 148.996C197.761 147.671 199.581 147.008 201.859 147.008C204.155 147.008 205.975 147.671 207.319 148.996C208.681 150.321 209.363 152.263 209.363 154.82V159.58C209.363 162.193 208.681 164.153 207.319 165.46C205.975 166.748 204.155 167.392 201.859 167.392ZM201.859 164.76C203.408 164.76 204.556 164.321 205.303 163.444C206.049 162.548 206.423 161.297 206.423 159.692V154.652C206.423 153.047 206.021 151.815 205.219 150.956C204.416 150.079 203.296 149.64 201.859 149.64C200.403 149.64 199.283 150.088 198.499 150.984C197.715 151.861 197.323 153.084 197.323 154.652V159.692C197.323 161.335 197.696 162.595 198.443 163.472C199.208 164.331 200.347 164.76 201.859 164.76ZM233.887 167.392C231.609 167.392 229.789 166.748 228.427 165.46C227.083 164.153 226.411 162.193 226.411 159.58V154.82C226.411 152.263 227.083 150.321 228.427 148.996C229.789 147.671 231.609 147.008 233.887 147.008C236.183 147.008 238.003 147.671 239.347 148.996C240.709 150.321 241.391 152.263 241.391 154.82V159.58C241.391 162.193 240.709 164.153 239.347 165.46C238.003 166.748 236.183 167.392 233.887 167.392ZM233.887 164.76C235.436 164.76 236.584 164.321 237.331 163.444C238.077 162.548 238.451 161.297 238.451 159.692V154.652C238.451 153.047 238.049 151.815 237.247 150.956C236.444 150.079 235.324 149.64 233.887 149.64C232.431 149.64 231.311 150.088 230.527 150.984C229.743 151.861 229.351 153.084 229.351 154.652V159.692C229.351 161.335 229.724 162.595 230.471 163.472C231.236 164.331 232.375 164.76 233.887 164.76ZM255.356 167.392C253.078 167.392 251.258 166.748 249.896 165.46C248.552 164.153 247.88 162.193 247.88 159.58V154.82C247.88 152.263 248.552 150.321 249.896 148.996C251.258 147.671 253.078 147.008 255.356 147.008C257.652 147.008 259.472 147.671 260.816 148.996C262.178 150.321 262.86 152.263 262.86 154.82V159.58C262.86 162.193 262.178 164.153 260.816 165.46C259.472 166.748 257.652 167.392 255.356 167.392ZM255.356 164.76C256.905 164.76 258.053 164.321 258.8 163.444C259.546 162.548 259.92 161.297 259.92 159.692V154.652C259.92 153.047 259.518 151.815 258.716 150.956C257.913 150.079 256.793 149.64 255.356 149.64C253.9 149.64 252.78 150.088 251.996 150.984C251.212 151.861 250.82 153.084 250.82 154.652V159.692C250.82 161.335 251.193 162.595 251.94 163.472C252.705 164.331 253.844 164.76 255.356 164.76ZM276.825 167.392C274.548 167.392 272.728 166.748 271.365 165.46C270.021 164.153 269.349 162.193 269.349 159.58V154.82C269.349 152.263 270.021 150.321 271.365 148.996C272.728 147.671 274.548 147.008 276.825 147.008C279.121 147.008 280.941 147.671 282.285 148.996C283.648 150.321 284.329 152.263 284.329 154.82V159.58C284.329 162.193 283.648 164.153 282.285 165.46C280.941 166.748 279.121 167.392 276.825 167.392ZM276.825 164.76C278.374 164.76 279.522 164.321 280.269 163.444C281.016 162.548 281.389 161.297 281.389 159.692V154.652C281.389 153.047 280.988 151.815 280.185 150.956C279.382 150.079 278.262 149.64 276.825 149.64C275.369 149.64 274.249 150.088 273.465 150.984C272.681 151.861 272.289 153.084 272.289 154.652V159.692C272.289 161.335 272.662 162.595 273.409 163.472C274.174 164.331 275.313 164.76 276.825 164.76ZM298.294 167.392C296.017 167.392 294.197 166.748 292.834 165.46C291.49 164.153 290.818 162.193 290.818 159.58V154.82C290.818 152.263 291.49 150.321 292.834 148.996C294.197 147.671 296.017 147.008 298.294 147.008C300.59 147.008 302.41 147.671 303.754 148.996C305.117 150.321 305.798 152.263 305.798 154.82V159.58C305.798 162.193 305.117 164.153 303.754 165.46C302.41 166.748 300.59 167.392 298.294 167.392ZM298.294 164.76C299.843 164.76 300.991 164.321 301.738 163.444C302.485 162.548 302.858 161.297 302.858 159.692V154.652C302.858 153.047 302.457 151.815 301.654 150.956C300.851 150.079 299.731 149.64 298.294 149.64C296.838 149.64 295.718 150.088 294.934 150.984C294.15 151.861 293.758 153.084 293.758 154.652V159.692C293.758 161.335 294.131 162.595 294.878 163.472C295.643 164.331 296.782 164.76 298.294 164.76ZM330.322 167.392C328.045 167.392 326.225 166.748 324.862 165.46C323.518 164.153 322.846 162.193 322.846 159.58V154.82C322.846 152.263 323.518 150.321 324.862 148.996C326.225 147.671 328.045 147.008 330.322 147.008C332.618 147.008 334.438 147.671 335.782 148.996C337.145 150.321 337.826 152.263 337.826 154.82V159.58C337.826 162.193 337.145 164.153 335.782 165.46C334.438 166.748 332.618 167.392 330.322 167.392ZM330.322 164.76C331.871 164.76 333.019 164.321 333.766 163.444C334.513 162.548 334.886 161.297 334.886 159.692V154.652C334.886 153.047 334.485 151.815 333.682 150.956C332.879 150.079 331.759 149.64 330.322 149.64C328.866 149.64 327.746 150.088 326.962 150.984C326.178 151.861 325.786 153.084 325.786 154.652V159.692C325.786 161.335 326.159 162.595 326.906 163.472C327.671 164.331 328.81 164.76 330.322 164.76ZM351.791 167.392C349.514 167.392 347.694 166.748 346.331 165.46C344.987 164.153 344.315 162.193 344.315 159.58V154.82C344.315 152.263 344.987 150.321 346.331 148.996C347.694 147.671 349.514 147.008 351.791 147.008C354.087 147.008 355.907 147.671 357.251 148.996C358.614 150.321 359.295 152.263 359.295 154.82V159.58C359.295 162.193 358.614 164.153 357.251 165.46C355.907 166.748 354.087 167.392 351.791 167.392ZM351.791 164.76C353.34 164.76 354.488 164.321 355.235 163.444C355.982 162.548 356.355 161.297 356.355 159.692V154.652C356.355 153.047 355.954 151.815 355.151 150.956C354.348 150.079 353.228 149.64 351.791 149.64C350.335 149.64 349.215 150.088 348.431 150.984C347.647 151.861 347.255 153.084 347.255 154.652V159.692C347.255 161.335 347.628 162.595 348.375 163.472C349.14 164.331 350.279 164.76 351.791 164.76ZM373.26 167.392C370.983 167.392 369.163 166.748 367.8 165.46C366.456 164.153 365.784 162.193 365.784 159.58V154.82C365.784 152.263 366.456 150.321 367.8 148.996C369.163 147.671 370.983 147.008 373.26 147.008C375.556 147.008 377.376 147.671 378.72 148.996C380.083 150.321 380.764 152.263 380.764 154.82V159.58C380.764 162.193 380.083 164.153 378.72 165.46C377.376 166.748 375.556 167.392 373.26 167.392ZM373.26 164.76C374.81 164.76 375.958 164.321 376.704 163.444C377.451 162.548 377.824 161.297 377.824 159.692V154.652C377.824 153.047 377.423 151.815 376.62 150.956C375.818 150.079 374.698 149.64 373.26 149.64C371.804 149.64 370.684 150.088 369.9 150.984C369.116 151.861 368.724 153.084 368.724 154.652V159.692C368.724 161.335 369.098 162.595 369.844 163.472C370.61 164.331 371.748 164.76 373.26 164.76ZM394.729 167.392C392.452 167.392 390.632 166.748 389.269 165.46C387.925 164.153 387.253 162.193 387.253 159.58V154.82C387.253 152.263 387.925 150.321 389.269 148.996C390.632 147.671 392.452 147.008 394.729 147.008C397.025 147.008 398.845 147.671 400.189 148.996C401.552 150.321 402.233 152.263 402.233 154.82V159.58C402.233 162.193 401.552 164.153 400.189 165.46C398.845 166.748 397.025 167.392 394.729 167.392ZM394.729 164.76C396.279 164.76 397.427 164.321 398.173 163.444C398.92 162.548 399.293 161.297 399.293 159.692V154.652C399.293 153.047 398.892 151.815 398.089 150.956C397.287 150.079 396.167 149.64 394.729 149.64C393.273 149.64 392.153 150.088 391.369 150.984C390.585 151.861 390.193 153.084 390.193 154.652V159.692C390.193 161.335 390.567 162.595 391.313 163.472C392.079 164.331 393.217 164.76 394.729 164.76Z" fill="white"/>
<ellipse cx="55.4783" cy="51.5" rx="23.4783" ry="23.5" fill="white"/>
<path d="M115.5 51.5C115.5 57.0647 110.993 61.575 105.435 61.575C99.8764 61.575 95.3696 57.0647 95.3696 51.5C95.3696 45.9353 99.8764 41.425 105.435 41.425C110.993 41.425 115.5 45.9353 115.5 51.5Z" stroke="white"/>
<g clip-path="url(#clip1_0_269)">
<path d="M35.71 214.696C34.73 214.696 33.9507 214.425 33.372 213.884C32.7933 213.333 32.504 212.559 32.504 211.56V210.72H34.016V211.56C34.016 212.083 34.156 212.503 34.436 212.82C34.7253 213.128 35.1407 213.282 35.682 213.282C36.2047 213.282 36.592 213.128 36.844 212.82C37.096 212.512 37.222 212.092 37.222 211.56V206.072H35.514V204.7H39.826V206.072H38.734V211.56C38.734 212.577 38.468 213.357 37.936 213.898C37.4133 214.43 36.6713 214.696 35.71 214.696ZM42.2237 214.5L45.0237 204.7H47.6837L50.4697 214.5H48.9157L48.2717 212.19H44.4357L43.7917 214.5H42.2237ZM44.8137 210.79H47.8937L46.4657 205.638H46.2417L44.8137 210.79ZM53.7974 214.5V204.7H56.7094L59.3694 213.492H59.5934V204.7H61.0914V214.5H58.1794L55.5194 205.694H55.2954V214.5H53.7974ZM65.1353 214.5V204.7H71.3093V206.072H66.6473V208.886H70.9173V210.258H66.6473V213.128H71.3793V214.5H65.1353ZM79.6182 214.5L82.4182 204.7H85.0782L87.8642 214.5H86.3102L85.6662 212.19H81.8302L81.1862 214.5H79.6182ZM82.2082 210.79H85.2882L83.8602 205.638H83.6362L82.2082 210.79ZM91.1919 214.5V204.7H95.0839C95.6813 204.7 96.2133 204.821 96.6799 205.064C97.1559 205.297 97.5246 205.633 97.7859 206.072C98.0566 206.501 98.1919 207.019 98.1919 207.626V207.808C98.1919 208.415 98.0519 208.937 97.7719 209.376C97.5013 209.815 97.1326 210.151 96.6659 210.384C96.1993 210.617 95.6719 210.734 95.0839 210.734H92.7039V214.5H91.1919ZM92.7039 209.362H94.9299C95.4619 209.362 95.8866 209.222 96.2039 208.942C96.5213 208.662 96.6799 208.279 96.6799 207.794V207.654C96.6799 207.159 96.5213 206.772 96.2039 206.492C95.8866 206.212 95.4619 206.072 94.9299 206.072H92.7039V209.362ZM101.627 214.5V204.7H105.519C106.117 204.7 106.649 204.821 107.115 205.064C107.591 205.297 107.96 205.633 108.221 206.072C108.492 206.501 108.627 207.019 108.627 207.626V207.808C108.627 208.415 108.487 208.937 108.207 209.376C107.937 209.815 107.568 210.151 107.101 210.384C106.635 210.617 106.107 210.734 105.519 210.734H103.139V214.5H101.627ZM103.139 209.362H105.365C105.897 209.362 106.322 209.222 106.639 208.942C106.957 208.662 107.115 208.279 107.115 207.794V207.654C107.115 207.159 106.957 206.772 106.639 206.492C106.322 206.212 105.897 206.072 105.365 206.072H103.139V209.362ZM112.063 214.5V204.7H113.575V213.128H118.293V214.5H112.063ZM121.678 214.5V204.7H127.852V206.072H123.19V208.886H127.46V210.258H123.19V213.128H127.922V214.5H121.678ZM134.831 214.696C134.093 214.696 133.44 214.565 132.871 214.304C132.301 214.043 131.853 213.66 131.527 213.156C131.209 212.643 131.051 212.022 131.051 211.294V210.944H132.549V211.294C132.549 211.985 132.754 212.503 133.165 212.848C133.585 213.193 134.14 213.366 134.831 213.366C135.531 213.366 136.058 213.221 136.413 212.932C136.767 212.633 136.945 212.251 136.945 211.784C136.945 211.476 136.861 211.224 136.693 211.028C136.525 210.832 136.287 210.678 135.979 210.566C135.671 210.445 135.302 210.333 134.873 210.23L134.355 210.104C133.729 209.955 133.183 209.773 132.717 209.558C132.259 209.334 131.905 209.04 131.653 208.676C131.401 208.312 131.275 207.845 131.275 207.276C131.275 206.697 131.415 206.203 131.695 205.792C131.984 205.381 132.381 205.064 132.885 204.84C133.389 204.616 133.981 204.504 134.663 204.504C135.344 204.504 135.951 204.621 136.483 204.854C137.024 205.087 137.449 205.433 137.757 205.89C138.065 206.347 138.219 206.921 138.219 207.612V208.116H136.721V207.612C136.721 207.192 136.632 206.851 136.455 206.59C136.287 206.329 136.049 206.137 135.741 206.016C135.433 205.895 135.073 205.834 134.663 205.834C134.065 205.834 133.599 205.96 133.263 206.212C132.936 206.455 132.773 206.795 132.773 207.234C132.773 207.533 132.843 207.78 132.983 207.976C133.132 208.163 133.347 208.317 133.627 208.438C133.907 208.559 134.257 208.667 134.677 208.76L135.195 208.886C135.829 209.026 136.389 209.208 136.875 209.432C137.36 209.647 137.743 209.941 138.023 210.314C138.303 210.687 138.443 211.168 138.443 211.756C138.443 212.344 138.293 212.857 137.995 213.296C137.705 213.735 137.29 214.08 136.749 214.332C136.207 214.575 135.568 214.696 134.831 214.696ZM142.03 214.5V204.7H148.204V206.072H143.542V208.886H147.812V210.258H143.542V213.128H148.274V214.5H142.03ZM151.85 214.5V204.7H158.024V206.072H153.362V208.886H157.632V210.258H153.362V213.128H158.094V214.5H151.85ZM161.306 214.5V213.156H162.622V206.044H161.306V204.7H165.226C166.533 204.7 167.532 205.031 168.222 205.694C168.922 206.357 169.272 207.355 169.272 208.69V210.524C169.272 211.859 168.922 212.857 168.222 213.52C167.532 214.173 166.533 214.5 165.226 214.5H161.306ZM164.148 213.128H165.24C166.09 213.128 166.72 212.913 167.13 212.484C167.541 212.055 167.746 211.415 167.746 210.566V208.634C167.746 207.775 167.541 207.136 167.13 206.716C166.72 206.296 166.09 206.086 165.24 206.086H164.148V213.128Z" fill="white"/>
<path d="M370.251 214.696C369.112 214.696 368.202 214.374 367.521 213.73C366.849 213.077 366.513 212.097 366.513 210.79V208.41C366.513 207.131 366.849 206.161 367.521 205.498C368.202 204.835 369.112 204.504 370.251 204.504C371.399 204.504 372.309 204.835 372.981 205.498C373.662 206.161 374.003 207.131 374.003 208.41V210.79C374.003 212.097 373.662 213.077 372.981 213.73C372.309 214.374 371.399 214.696 370.251 214.696ZM370.251 213.38C371.026 213.38 371.6 213.161 371.973 212.722C372.346 212.274 372.533 211.649 372.533 210.846V208.326C372.533 207.523 372.332 206.907 371.931 206.478C371.53 206.039 370.97 205.82 370.251 205.82C369.523 205.82 368.963 206.044 368.571 206.492C368.179 206.931 367.983 207.542 367.983 208.326V210.846C367.983 211.667 368.17 212.297 368.543 212.736C368.926 213.165 369.495 213.38 370.251 213.38ZM381.275 214.696C380.136 214.696 379.226 214.374 378.545 213.73C377.873 213.077 377.537 212.097 377.537 210.79V208.41C377.537 207.131 377.873 206.161 378.545 205.498C379.226 204.835 380.136 204.504 381.275 204.504C382.423 204.504 383.333 204.835 384.005 205.498C384.686 206.161 385.027 207.131 385.027 208.41V210.79C385.027 212.097 384.686 213.077 384.005 213.73C383.333 214.374 382.423 214.696 381.275 214.696ZM381.275 213.38C382.049 213.38 382.623 213.161 382.997 212.722C383.37 212.274 383.557 211.649 383.557 210.846V208.326C383.557 207.523 383.356 206.907 382.955 206.478C382.553 206.039 381.993 205.82 381.275 205.82C380.547 205.82 379.987 206.044 379.595 206.492C379.203 206.931 379.007 207.542 379.007 208.326V210.846C379.007 211.667 379.193 212.297 379.567 212.736C379.949 213.165 380.519 213.38 381.275 213.38ZM387.678 217.3L391.794 204.7H393.236L389.12 217.3H387.678ZM399.603 214.696C398.464 214.696 397.554 214.374 396.873 213.73C396.201 213.077 395.865 212.097 395.865 210.79V208.41C395.865 207.131 396.201 206.161 396.873 205.498C397.554 204.835 398.464 204.504 399.603 204.504C400.751 204.504 401.661 204.835 402.333 205.498C403.014 206.161 403.355 207.131 403.355 208.41V210.79C403.355 212.097 403.014 213.077 402.333 213.73C401.661 214.374 400.751 214.696 399.603 214.696ZM399.603 213.38C400.377 213.38 400.951 213.161 401.325 212.722C401.698 212.274 401.885 211.649 401.885 210.846V208.326C401.885 207.523 401.684 206.907 401.283 206.478C400.881 206.039 400.321 205.82 399.603 205.82C398.875 205.82 398.315 206.044 397.923 206.492C397.531 206.931 397.335 207.542 397.335 208.326V210.846C397.335 211.667 397.521 212.297 397.895 212.736C398.277 213.165 398.847 213.38 399.603 213.38ZM410.626 214.696C409.487 214.696 408.577 214.374 407.896 213.73C407.224 213.077 406.888 212.097 406.888 210.79V208.41C406.888 207.131 407.224 206.161 407.896 205.498C408.577 204.835 409.487 204.504 410.626 204.504C411.774 204.504 412.684 204.835 413.356 205.498C414.037 206.161 414.378 207.131 414.378 208.41V210.79C414.378 212.097 414.037 213.077 413.356 213.73C412.684 214.374 411.774 214.696 410.626 214.696ZM410.626 213.38C411.401 213.38 411.975 213.161 412.348 212.722C412.721 212.274 412.908 211.649 412.908 210.846V208.326C412.908 207.523 412.707 206.907 412.306 206.478C411.905 206.039 411.345 205.82 410.626 205.82C409.898 205.82 409.338 206.044 408.946 206.492C408.554 206.931 408.358 207.542 408.358 208.326V210.846C408.358 211.667 408.545 212.297 408.918 212.736C409.301 213.165 409.87 213.38 410.626 213.38Z" fill="white"/>
</g>
</g>
<defs>
<filter id="filter0_f_0_269" x="56.1768" y="-154.823" width="432.957" height="432.957" filterUnits="userSpaceOnUse" color-interpolation-filters="sRGB">
<feFlood flood-opacity="0" result="BackgroundImageFix"/>
<feBlend mode="normal" in="SourceGraphic" in2="BackgroundImageFix" result="shape"/>
<feGaussianBlur stdDeviation="40" result="effect1_foregroundBlur_0_269"/>
</filter>
<filter id="filter1_f_0_269" x="155.177" y="-159.823" width="432.957" height="432.957" filterUnits="userSpaceOnUse" color-interpolation-filters="sRGB">
<feFlood flood-opacity="0" result="BackgroundImageFix"/>
<feBlend mode="normal" in="SourceGraphic" in2="BackgroundImageFix" result="shape"/>
<feGaussianBlur stdDeviation="40" result="effect1_foregroundBlur_0_269"/>
</filter>
<filter id="filter2_f_0_269" x="24.1768" y="-2.82317" width="432.957" height="432.957" filterUnits="userSpaceOnUse" color-interpolation-filters="sRGB">
<feFlood flood-opacity="0" result="BackgroundImageFix"/>
<feBlend mode="normal" in="SourceGraphic" in2="BackgroundImageFix" result="shape"/>
<feGaussianBlur stdDeviation="40" result="effect1_foregroundBlur_0_269"/>
</filter>
<linearGradient id="paint0_linear_0_269" x1="-128.592" y1="35.2406" x2="-87.7792" y2="294.081" gradientUnits="userSpaceOnUse">
<stop stop-color="#6348FE"/>
<stop offset="1" stop-color="#610595"/>
</linearGradient>
<clipPath id="clip0_0_269">
<rect width="447" height="245" fill="white"/>
</clipPath>
<clipPath id="clip1_0_269">
<rect width="383.142" height="18" fill="white" transform="translate(32 200.5)"/>
</clipPath>
</defs>
</svg>
